<svg width="24" height="16" viewBox="0 0 24 16" fill="none" xmlns="http://www.w3.org/2000/svg">
<path d="M21.6543 0H2.34567C1.0502 0 0 1.04946 0 2.34395V13.6561C0 14.2769 0.247435 14.8736 0.687315 15.3132C1.12719 15.7527 1.72434 16 2.34567 16H21.6543C22.2757 16 22.8728 15.7527 23.3127 15.3132C23.7526 14.8736 24 14.2769 24 13.6561V2.34395C24 1.72308 23.7526 1.12637 23.3127 0.686812C22.8728 0.247251 22.2757 0 21.6543 0ZM22.8277 2.34395L22.8266 13.6561C22.8266 13.8396 22.7804 14.0209 22.6947 14.1835L15.5805 8.00014L22.6947 1.81676C22.7804 1.97939 22.8266 2.16072 22.8266 2.34423L22.8277 2.34395ZM1.1734 13.6561V2.34395C1.1734 2.16043 1.21958 1.9791 1.30536 1.81647L8.4195 7.99986L1.30536 14.1832C1.21958 14.0206 1.1734 13.8393 1.1734 13.6558V13.6561ZM12.6928 8.96703H12.6917C12.2947 9.30991 11.7053 9.30991 11.3083 8.96703L2.35242 1.17254H21.6479L12.6928 8.96703ZM9.31453 8.78791L10.5341 9.84066C11.3754 10.5692 12.6246 10.5692 13.4659 9.84066L14.6921 8.77694L21.6477 14.8275H2.35228L9.31453 8.78791Z" fill="white"/>
</svg>
