<svg width="60" height="84" viewBox="0 0 60 84" fill="none" xmlns="http://www.w3.org/2000/svg">
<path d="M30.109 83.594C24.6168 83.5901 19.14 83.0627 13.754 82.0198C10.2306 81.3401 7.5743 78.426 7.2188 74.8596L0.429704 6.4456C0.273454 4.8987 0.781263 3.3597 1.8242 2.2112C2.8672 1.0589 4.3476 0.398697 5.8984 0.398697H54.1014C55.6522 0.398697 57.1366 1.05495 58.1795 2.2073C59.2225 3.3596 59.7303 4.8987 59.574 6.4456L52.781 74.8756C52.4294 78.4381 49.781 81.3444 46.2693 82.0318C40.9451 83.0709 35.535 83.594 30.109 83.594ZM5.898 3.6022C5.24956 3.59829 4.6285 3.87564 4.191 4.35611C3.75741 4.84049 3.54256 5.48501 3.60897 6.12951L10.3981 74.5435C10.6246 76.6997 12.2262 78.4576 14.3551 78.8755C24.8241 80.8911 35.3551 80.8989 45.6561 78.8911C47.7772 78.4693 49.3749 76.7114 49.6014 74.5591L56.3866 6.12913C56.453 5.4846 56.242 4.84003 55.8045 4.35573C55.371 3.87526 54.7498 3.60182 54.1014 3.60182L5.898 3.6022Z" fill="black"/>
<path d="M30.117 75.156H30.1053C22.6834 75.1365 15.2893 74.2537 8.07027 72.5232C7.6523 72.4294 7.28902 72.1716 7.06247 71.8083C6.83591 71.4451 6.76559 71.0076 6.86325 70.5936C6.96091 70.1756 7.22263 69.8162 7.58981 69.5936C7.95309 69.3709 8.3945 69.3045 8.80861 69.41C23.0076 72.785 37.2696 72.7889 51.1836 69.4178C52.043 69.2068 52.9063 69.7342 53.1133 70.5936C53.3242 71.453 52.7969 72.3202 51.9375 72.5272C44.793 74.2655 37.468 75.1443 30.117 75.156Z" fill="black"/>
<path d="M37.973 18.758C33.7425 18.758 31.598 18.0861 29.5238 17.4377C27.5941 16.8361 25.7699 16.2658 22.0316 16.2658C18.2894 16.2658 16.4691 16.8361 14.5394 17.4377C12.4652 18.0861 10.3206 18.758 6.09023 18.758H6.08632C5.03162 18.7658 3.97302 18.715 2.92222 18.6096C2.49644 18.5744 2.10191 18.3674 1.82452 18.0353C1.55108 17.7072 1.42218 17.2814 1.46514 16.8517C1.50811 16.426 1.72295 16.0353 2.05889 15.7658C2.39092 15.5002 2.82061 15.3752 3.24639 15.426C4.1917 15.5197 5.14089 15.5627 6.08619 15.5588C9.82839 15.5588 11.6487 14.9885 13.5784 14.3869C15.6526 13.7385 17.7972 13.0666 22.0276 13.0666C26.2581 13.0666 28.4026 13.7385 30.4768 14.3869C32.4065 14.9885 34.2307 15.5588 37.9768 15.5588C41.7229 15.5588 43.5393 14.9885 45.469 14.3869C47.5432 13.7385 49.6878 13.0666 53.9182 13.0666C55.0549 13.0627 56.1877 13.1213 57.3166 13.2424C58.1955 13.34 58.8283 14.133 58.7268 15.0119C58.6291 15.8869 57.8362 16.5197 56.9612 16.4221C55.9495 16.3127 54.9339 16.2619 53.9182 16.2658C50.176 16.2658 48.3557 16.8361 46.426 17.4377C44.344 18.0901 42.1995 18.758 37.973 18.758Z" fill="black"/>
</svg>
