<svg width="141" height="141" viewBox="0 0 141 141" fill="none" xmlns="http://www.w3.org/2000/svg">
<path d="M70.5 0.600006C32 0.600006 0.599976 32 0.599976 70.5C0.599976 109 31.9 140.4 70.5 140.4C109.1 140.4 140.4 109.1 140.4 70.5C140.4 31.9 109 0.600006 70.5 0.600006ZM70.5 134.4C35.3 134.4 6.59998 105.7 6.59998 70.5C6.59998 35.3 35.3 6.60001 70.5 6.60001C105.7 6.60001 134.4 35.3 134.4 70.5C134.4 105.7 105.7 134.4 70.5 134.4Z" fill="black"/>
<path d="M112.3 40.2H99.2999C99.2999 38.7 99.2999 37.3 99.2999 35.8C99.2999 32.7 99.2999 29.6 99.2999 26.5V25.3C99.2999 23.6 97.9999 22.3 96.2999 22.3H44.4999C42.8999 22.3 41.5999 23.5 41.4999 25.1V25.3C41.4999 25.5 41.4999 25.7 41.4999 26V32.4C41.4999 35 41.4999 37.6 41.4999 40.2H28.2999C27.8999 40.2 27.4999 40.4 27.1999 40.7C26.8999 41 26.7999 41.4 26.7999 41.8C27.0999 48 27.7999 52.6 29.0999 56.8C30.4999 61.2 32.5999 64.7 35.5999 67.6C37.9999 69.9 40.8999 71.4 44.4999 72.3C45.5999 74.6 46.9999 76.8 48.7999 78.8C49.6999 79.9 50.5999 80.9 51.5999 82C52.9999 83.6 54.3999 85.2 55.7999 86.8C58.9999 90.6 60.4999 94.3 60.5999 98.3C60.5999 98.5 60.5999 98.6 60.5999 98.7C60.4999 98.7 60.3999 98.8 60.0999 98.9L58.8999 99.3C55.9999 100.3 53.0999 101.2 50.1999 102.4C46.0999 104.1 42.5999 106.4 39.8999 109.3C38.7999 110.5 37.4999 112.1 36.7999 114.4C36.4999 115.3 36.6999 116.3 37.2999 117C37.8999 117.8 38.7999 118.2 39.6999 118.2H101.2C102.2 118.2 103.1 117.7 103.6 116.9C104.2 116.1 104.3 115.1 104 114.2L103.9 114C103.8 113.8 103.7 113.6 103.7 113.4C102 109.7 99.0999 107.3 96.6999 105.7C91.4999 102.1 85.5999 100.2 80.5999 98.8C80.3999 98.8 80.2999 98.7 80.1999 98.7C80.1999 98.6 80.1999 98.5 80.1999 98.3C80.2999 95 81.1999 92.1 82.9999 89.6C85.2999 86.6 87.7999 83.4 90.6999 80.3C92.8999 77.8 94.6999 75.2 96.0999 72.3C102.6 70.7 107.2 66.7 110.1 60.2C111.6 56.9 112.5 53.3 113 49.3C113.2 47.6 113.4 45.9 113.5 44.2C113.6 43.4 113.6 42.7 113.7 41.9C113.7 41.5 113.6 41.1 113.3 40.7C113.1 40.4 112.7 40.2 112.3 40.2ZM37.6999 65.5C35.0999 63 33.1999 59.9 31.9999 56C30.8999 52.4 30.1999 48.4 29.8999 43.3H41.4999C41.4999 48.3 41.4999 53.3 41.4999 58.3C41.4999 62 42.0999 65.5 43.0999 68.8C40.9999 68 39.1999 66.9 37.6999 65.5ZM86.2999 76.2C83.3999 79.4 80.6999 82.7 78.2999 85.9C75.6999 89.4 74.3999 93.4 74.2999 98C74.1999 101.5 75.6999 103.5 79.0999 104.5C83.6999 105.8 88.8999 107.5 93.3999 110.6C94.1999 111.1 94.8999 111.6 95.3999 112.2H45.3999C47.2999 110.5 49.6999 109 52.3999 107.9C55.0999 106.8 57.9999 105.8 60.6999 104.9L61.8999 104.5C65.0999 103.4 66.4999 101.4 66.4999 98.1C66.3999 92.7 64.3999 87.8 60.2999 82.9C58.8999 81.2 57.3999 79.6 55.9999 78C55.0999 77 54.1999 75.9 53.2999 74.9C49.2999 70.3 47.3999 64.8 47.3999 58.2C47.3999 49.6 47.3999 41 47.3999 32.4V28.3H93.1999C93.1999 30.8 93.1999 33.3 93.1999 35.8C93.1999 42.9 93.1999 50.2 93.1999 57.4C93.3999 64.8 90.9999 70.9 86.2999 76.2ZM110.6 43.9C110.4 45.6 110.3 47.2 110.1 48.9C109.6 52.6 108.7 55.9 107.4 59C105.3 63.9 102.1 67.1 97.5999 68.7C98.7999 65.2 99.3999 61.4 99.2999 57.4C99.2999 52.7 99.2999 47.9 99.2999 43.2H110.7C110.6 43.4 110.6 43.6 110.6 43.9Z" fill="black"/>
<path d="M65 59.5L59.4 55.5L65 51.5C65.4 51.2 65.5 50.7 65.3 50.3L64.6 48.7C64.5 48.4 64.2 48.2 63.9 48.2C63.6 48.1 63.3 48.2 63.1 48.4L55.4 54.1C55.1 54.3 55 54.6 55 54.9V56.4C55 56.7 55.2 57 55.4 57.2L63.1 62.8C63.3 62.9 63.5 63 63.7 63C63.8 63 63.9 63 63.9 63C64.2 62.9 64.4 62.7 64.6 62.5L65.4 61C65.6 60.3 65.4 59.8 65 59.5Z" fill="black"/>
<path d="M75.2 39.4C75 39.1 74.7 39 74.4 39H72.8C72.3 39 71.9 39.3 71.8 39.8L65.3 68.6C65.2 68.9 65.3 69.2 65.5 69.4C65.7 69.6 66 69.8 66.3 69.8H67.9C68.4 69.8 68.8 69.5 68.9 69L75.4 40.2C75.5 39.9 75.4 39.6 75.2 39.4Z" fill="black"/>
<path d="M85.2999 53.9L77.5999 48.2C77.3999 48 77.0999 48 76.7999 48C76.4999 48.1 76.2999 48.3 76.0999 48.5L75.3999 50.1C75.1999 50.5 75.2999 51 75.6999 51.3L81.2999 55.3L75.6999 59.3C75.2999 59.6 75.1999 60.1 75.3999 60.6L76.1999 62.1C76.2999 62.4 76.5999 62.6 76.8999 62.6C76.9999 62.6 77.0999 62.6 77.0999 62.6C77.2999 62.6 77.4999 62.5 77.6999 62.4L85.3999 56.8C85.6999 56.6 85.7999 56.3 85.7999 56V54.5C85.7999 54.4 85.5999 54.1 85.2999 53.9Z" fill="black"/>
</svg>
