<svg width="25" height="30" viewBox="0 0 25 30" fill="none" xmlns="http://www.w3.org/2000/svg">
<path d="M17.4716 5H7.52843C5.5682 5 3.97729 6.55556 3.97729 8.47222V18.1944C3.97729 20.1111 5.5682 21.6667 7.52843 21.6667H17.4716C19.4318 21.6667 21.0227 20.1111 21.0227 18.1944V8.47222C21.0227 6.55556 19.4318 5 17.4716 5ZM19.6023 18.1944C19.6023 19.3403 18.6435 20.2778 17.4716 20.2778H7.52843C6.35656 20.2778 5.39775 19.3403 5.39775 18.1944V8.47222C5.39775 7.32639 6.35656 6.38889 7.52843 6.38889H17.4716C18.6435 6.38889 19.6023 7.32639 19.6023 8.47222V18.1944Z" fill="white"/>
<path d="M12.5 8.47223C9.7585 8.47223 7.52838 10.6528 7.52838 13.3333C7.52838 16.0139 9.7585 18.1945 12.5 18.1945C15.2414 18.1945 17.4716 16.0139 17.4716 13.3333C17.4716 10.6528 15.2414 8.47223 12.5 8.47223ZM12.5 16.8056C10.5397 16.8056 8.94884 15.25 8.94884 13.3333C8.94884 11.4167 10.5397 9.86112 12.5 9.86112C14.4602 9.86112 16.0511 11.4167 16.0511 13.3333C16.0511 15.25 14.4602 16.8056 12.5 16.8056Z" fill="white"/>
<path d="M17.4716 9.16666C17.8638 9.16666 18.1818 8.85575 18.1818 8.47222C18.1818 8.08868 17.8638 7.77777 17.4716 7.77777C17.0793 7.77777 16.7614 8.08868 16.7614 8.47222C16.7614 8.85575 17.0793 9.16666 17.4716 9.16666Z" fill="white"/>
</svg>
