<svg width="21" height="17" viewBox="0 0 21 17" fill="none" xmlns="http://www.w3.org/2000/svg">
<path d="M16.968 0.541854C12.6715 -0.180618 8.28654 -0.180618 3.99 0.541854C1.533 1.06248 0 2.66686 0 4.75998V12.1975C0 14.3225 1.533 15.9056 4.032 16.4475C6.16928 16.8116 8.33264 16.9964 10.5 17C12.674 16.9995 14.8443 16.8183 16.989 16.4581C19.425 15.9906 21 14.3331 21 12.2081V4.77061C21 2.65623 19.425 0.99873 16.968 0.541854ZM13.923 8.97811L8.673 12.1656C8.59088 12.2163 8.49615 12.2421 8.4 12.24C8.30884 12.2393 8.21906 12.2174 8.1375 12.1762C8.05494 12.1255 7.98714 12.0536 7.94103 11.9677C7.89491 11.8819 7.87213 11.7852 7.875 11.6875V5.31248C7.87579 5.21839 7.90032 5.12606 7.94626 5.04424C7.9922 4.96243 8.05802 4.89384 8.1375 4.84498C8.21985 4.80034 8.31183 4.77698 8.40525 4.77698C8.49867 4.77698 8.59065 4.80034 8.673 4.84498L13.923 8.03249C13.9989 8.08146 14.0613 8.14899 14.1046 8.22884C14.1479 8.30869 14.1706 8.39829 14.1706 8.48936C14.1706 8.58043 14.1479 8.67004 14.1046 8.74989C14.0613 8.82974 13.9989 8.89727 13.923 8.94624V8.97811Z" fill="white"/>
</svg>
