<svg width="50" height="49" viewBox="0 0 50 49" fill="none" xmlns="http://www.w3.org/2000/svg">
<g clip-path="url(#clip0_64_18)">
<path d="M7 36.553C3.691 36.553 1 39.244 1 42.553C1 45.862 3.691 48.553 7 48.553C10.309 48.553 13 45.862 13 42.553C13 42.343 12.989 42.136 12.968 41.932L37.575 35.098C38.535 37.136 40.602 38.553 43 38.553C46.309 38.553 49 35.862 49 32.553C49 29.244 46.309 26.553 43 26.553C40.489 26.553 38.337 28.105 37.444 30.298L12.985 24.855C12.99 24.754 13 24.655 13 24.553C13 22.368 11.822 20.457 10.071 19.408L12.789 12.43C13.181 12.511 13.585 12.553 14 12.553C15.867 12.553 17.536 11.696 18.638 10.355L29.374 16.49C29.136 17.134 29 17.827 29 18.553C29 21.862 31.691 24.553 35 24.553C38.309 24.553 41 21.862 41 18.553C41 15.586 38.833 13.122 36 12.643V11.253L48.644 6.656L34 0V12.643C32.544 12.889 31.262 13.655 30.362 14.751L19.627 8.617C19.864 7.972 20 7.279 20 6.553C20 3.244 17.309 0.553 14 0.553C10.691 0.553 8 3.244 8 6.553C8 8.738 9.178 10.649 10.929 11.698L8.211 18.676C7.819 18.595 7.415 18.553 7 18.553C3.691 18.553 1 21.244 1 24.553C1 27.862 3.691 30.553 7 30.553C9.511 30.553 11.663 29.001 12.557 26.808L37.016 32.251C37.01 32.352 37 32.451 37 32.553C37 32.763 37.011 32.97 37.032 33.174L12.425 40.008C11.465 37.97 9.398 36.553 7 36.553ZM7 46.553C4.794 46.553 3 44.759 3 42.553C3 40.347 4.794 38.553 7 38.553C9.206 38.553 11 40.347 11 42.553C11 44.759 9.206 46.553 7 46.553ZM43 28.553C45.206 28.553 47 30.347 47 32.553C47 34.759 45.206 36.553 43 36.553C40.794 36.553 39 34.759 39 32.553C39 30.347 40.794 28.553 43 28.553ZM36 3.106L43.356 6.45L36 9.125V3.106ZM34 14.695V18.553H36V14.695C37.721 15.142 39 16.695 39 18.553C39 20.759 37.206 22.553 35 22.553C32.794 22.553 31 20.759 31 18.553C31 16.695 32.279 15.142 34 14.695ZM14 2.553C16.206 2.553 18 4.347 18 6.553C18 8.759 16.206 10.553 14 10.553C11.794 10.553 10 8.759 10 6.553C10 4.347 11.794 2.553 14 2.553ZM7 28.553C4.794 28.553 3 26.759 3 24.553C3 22.347 4.794 20.553 7 20.553C9.206 20.553 11 22.347 11 24.553C11 26.759 9.206 28.553 7 28.553Z" fill="black"/>
</g>
<defs>
<clipPath id="clip0_64_18">
<rect width="50" height="48.553" fill="white"/>
</clipPath>
</defs>
</svg>
